HIERARCHY
ROOT Hips
{
	OFFSET 0.000000 0.000000 0.000000
	CHANNELS 6 Xposition Yposition Zposition Zrotation Yrotation Xrotation 
	JOINT LHipJoint
	{
		OFFSET 0.000000 0.000000 0.000000
		CHANNELS 3 Zrotation Yrotation Xrotation
		JOINT LeftUpLeg
		{
			OFFSET 1.363060 -1.794630 0.839290
			CHANNELS 3 Zrotation Yrotation Xrotation
			JOINT LeftLeg
			{
				OFFSET 2.448110 -6.726130 0.000000
				CHANNELS 3 Zrotation Yrotation Xrotation
				JOINT LeftFoot
				{
					OFFSET 2.562200 -7.039590 0.000000
					CHANNELS 3 Zrotation Yrotation Xrotation
					JOINT LeftToeBase
					{
						OFFSET 0.157640 -0.433110 2.322550
						CHANNELS 3 Zrotation Yrotation Xrotation
						End Site
						{
							OFFSET 0.000000 0.000000 0.000000
						}
					}
				}
			}
		}
	}
	JOINT RHipJoint
	{
		OFFSET 0.000000 0.000000 0.000000
		CHANNELS 3 Zrotation Yrotation Xrotation
		JOINT RightUpLeg
		{
			OFFSET -1.305520 -1.794630 0.839290
			CHANNELS 3 Zrotation Yrotation Xrotation
			JOINT RightLeg
			{
				OFFSET -2.542530 -6.985550 0.000000
				CHANNELS 3 Zrotation Yrotation Xrotation
				JOINT RightFoot
				{
					OFFSET -2.568260 -7.056230 0.000000
					CHANNELS 3 Zrotation Yrotation Xrotation
					JOINT RightToeBase
					{
						OFFSET -0.164730 -0.452590 2.363150
						CHANNELS 3 Zrotation Yrotation Xrotation
						End Site
						{
							OFFSET 0.000000 0.000000 0.000000
						}
					}
				}
			}
		}
	}
}
MOTION
Frames: 30
Frame Time: 0.008333
-2.674040 16.267443 1.056791 25.356691 60.624420 18.271737 -10.768200 4.618224 -2.342543 5.771110 24.317470 -2.816258 0.241189 2.571285 49.204568 1.458052 -4.994432 28.210409 -3.526700 -0.000000 -69.637400 9.761698 -0.174718 -1.558833 19.001134 -18.607796 -22.023244 1.508166 0.290581 17.703162 -7.030876 -24.880856 -31.490895 -170.159600 -0.000000 -30.816300
-2.547350 16.250064 1.161088 24.773504 59.892333 17.851310 -10.794919 4.569662 -2.156077 5.761625 23.368735 -3.918742 0.306642 2.614866 51.024133 1.532054 -4.860335 28.914744 -3.545800 -0.000000 -65.351000 9.730398 -0.274241 -1.626886 19.201286 -18.856261 -22.280770 1.641783 0.140774 19.257508 -6.852403 -23.827207 -32.196325 -170.200100 -0.000000 -31.109200
-2.427052 16.233741 1.262956 24.106239 59.085068 17.396010 -10.814960 4.507370 -1.983112 5.672226 22.376203 -5.101199 0.378574 2.666600 52.792210 1.603844 -4.115528 29.156165 -3.191400 -0.000000 -61.469900 9.699725 -0.368721 -1.677527 19.426768 -18.931556 -22.506680 1.755772 -0.004883 20.760836 -6.701293 -22.905797 -32.863852 -170.232600 0.000001 -31.322100
-2.313556 16.218569 1.362966 23.373241 58.205935 16.913948 -10.827426 4.430077 -1.830662 5.532083 21.363365 -6.338588 0.457832 2.726812 54.494845 1.674010 -2.836305 28.930791 -2.511100 -0.000001 -57.639800 9.673252 -0.454016 -1.708296 19.667652 -18.807260 -22.636557 1.842958 -0.136739 22.124659 -6.584859 -22.158996 -33.469201 -170.245600 0.000001 -31.473000
-2.207055 16.204526 1.461859 22.606602 57.262816 16.421107 -10.829677 4.337488 -1.699712 5.355724 20.336948 -7.591938 0.542343 2.791487 56.083557 1.748061 -1.112169 28.320911 -1.581600 0.000000 -54.443799 9.655475 -0.525865 -1.723223 19.907872 -18.498385 -22.626443 1.902083 -0.248382 23.290204 -6.502490 -21.591184 -34.000047 -170.235300 0.000000 -31.565001
-2.107412 16.191704 1.560487 21.828667 56.267313 15.928735 -10.820203 4.230752 -1.590525 5.164009 19.308923 -8.837181 0.628401 2.858355 57.531596 1.826018 0.919258 27.352786 -0.508400 -0.000000 -51.608600 9.647557 -0.582243 -1.723766 20.140565 -18.019801 -22.445995 1.934302 -0.334486 24.211181 -6.453436 -21.200266 -34.452943 -170.197300 0.000001 -31.620200
-2.014251 16.180156 1.659738 21.063960 55.232998 15.451537 -10.797229 4.112321 -1.499168 4.966799 18.281468 -10.052300 0.711205 2.923482 58.803790 1.908047 3.116443 26.087018 0.601100 -0.000000 -49.194400 9.650321 -0.622251 -1.712342 20.358991 -17.400829 -22.086032 1.943603 -0.392794 24.867091 -6.433350 -20.964475 -34.832123 -170.133200 0.000001 -31.659600
-1.926985 16.169980 1.760450 20.329631 54.173325 15.002755 -10.759813 3.985645 -1.419227 4.769979 17.252512 -11.225972 0.785887 2.983104 59.873283 1.991556 5.334830 24.577790 1.646500 0.000000 -47.130900 9.662961 -0.646777 -1.689470 20.562152 -16.669511 -21.554965 1.935020 -0.423121 25.255761 -6.437071 -20.854675 -35.145938 -170.047500 -0.000000 -31.708800
-1.844845 16.161290 1.863311 19.636317 53.100001 14.594135 -10.707896 3.854589 -1.342594 4.574169 16.215921 -12.356202 0.848140 3.033707 60.722348 2.071881 7.441529 22.879851 2.546300 -0.000000 -45.336000 9.683677 -0.657990 -1.654087 20.752280 -15.850546 -20.875410 1.913852 -0.427116 25.391752 -6.458654 -20.836275 -35.404243 -169.947900 0.000001 -31.791900
-1.767040 16.154195 1.968855 18.988420 52.021228 14.235788 -10.642186 3.722801 -1.260317 4.377544 15.162556 -13.448471 0.894554 3.072119 61.342240 2.143055 9.325718 21.048819 3.244700 -0.000000 -43.750700 9.710051 -0.659060 -1.603910 20.934549 -14.964124 -20.080022 1.885207 -0.407753 25.302682 -6.491640 -20.871986 -35.616075 -169.844699 0.000000 -31.929299
-1.692679 16.148795 2.077332 18.384401 50.941357 13.935018 -10.564150 3.593282 -1.163895 4.176164 14.082108 -14.513566 0.922857 3.096007 61.734553 2.198569 10.904980 19.135511 3.714100 0.000000 -42.258700 9.739321 -0.653636 -1.536222 21.115101 -14.026513 -19.206983 1.853803 -0.368824 25.025046 -6.529081 -20.923532 -35.787408 -169.750901 0.000000 -32.123200
-1.620999 16.145131 2.188785 17.818624 49.859791 13.696097 -10.475625 3.467910 -1.046134 3.966936 12.964798 -15.564156 0.931956 3.103805 61.909186 2.233013 12.130995 17.190323 3.955101 -0.000000 -40.869901 9.768931 -0.645366 -1.448437 21.299503 -13.050243 -18.294810 1.823811 -0.314479 24.600365 -6.563941 -20.954153 -35.921789 -169.680301 -0.000000 -32.374700
-1.551277 16.143176 2.302982 17.282488 48.771168 13.519745 -10.378582 3.347451 -0.902252 3.748192 11.804029 -16.612343 0.921874 3.095081 61.883579 2.242696 12.987760 15.255416 3.990700 -0.000000 -39.537600 9.796946 -0.637597 -1.339157 21.491023 -12.046982 -17.377221 1.798774 -0.248864 24.070580 -6.589218 -20.930613 -36.018649 -169.647100 -0.000000 -32.665800
-1.483025 16.142880 2.419565 16.767230 47.666479 13.403703 -10.274902 3.231452 -0.730124 3.520848 10.597854 -17.667963 0.893656 3.070264 61.679094 2.226952 13.491197 13.373968 3.861600 -0.000000 -38.313600 9.822071 -0.632705 -1.208144 21.690702 -11.025791 -16.480653 1.781332 -0.175592 23.473895 -6.599241 -20.827581 -36.077842 -169.662000 -0.000000 -33.003200
-1.415833 16.143999 2.538047 16.265252 46.534371 13.341761 -10.165974 3.118851 -0.531767 3.287963 9.354643 -18.737689 0.849005 3.031356 61.325449 2.186390 13.675485 11.556109 3.609900 -0.000000 -37.019000 9.844655 -0.632925 -1.057100 21.895150 -9.999485 -15.620972 1.773502 -0.098212 22.843114 -6.587283 -20.621651 -36.088567 -169.739000 -0.000000 -33.282900
-1.349534 16.146288 2.657846 15.770159 45.361558 13.325334 -10.052841 3.007771 -0.311588 3.053870 8.089130 -19.824006 0.790298 2.980485 60.848711 2.125863 13.601100 9.831187 3.285299 -0.000000 -35.746999 9.865581 -0.638865 -0.889145 22.098734 -8.977766 -14.802548 1.776017 -0.019105 22.201747 -6.550062 -20.303815 -36.048598 -169.881900 -0.000000 -33.509301
-1.284054 16.149336 2.778514 15.279216 44.135653 13.343145 -9.936006 2.896391 -0.077435 2.822033 6.827822 -20.926093 0.720133 2.920589 60.277747 2.051311 13.335999 8.207642 2.928900 0.000000 -34.469200 9.886980 -0.650633 -0.708837 22.292758 -7.972986 -14.019009 1.788728 0.059836 21.564850 -6.485136 -19.871686 -35.953862 -170.091700 0.000000 -33.645200
-1.219523 16.152764 2.899599 14.792480 42.845736 13.383317 -9.815612 2.783142 0.160634 2.592727 5.604819 -22.041078 0.641254 2.854815 59.638471 1.970361 12.955331 6.696862 2.575000 0.000001 -33.267000 9.911388 -0.667033 -0.521629 22.467307 -6.995496 -13.255348 1.810341 0.137743 20.937799 -6.392579 -19.333218 -35.804725 -170.362900 -0.000000 -33.695300
-1.156141 16.156127 3.020864 14.313983 41.484853 13.433451 -9.691377 2.667201 0.391299 2.361442 4.461701 -23.164816 0.555897 2.786258 58.956439 1.889928 12.526853 5.290579 2.244100 0.000000 -32.116800 9.942093 -0.686984 -0.332902 22.611175 -6.057415 -12.491572 1.838909 0.213996 20.320758 -6.273589 -18.701569 -35.602770 -170.686700 -0.000001 -33.637900
-1.094155 16.159075 3.142212 13.849997 40.050605 13.484174 -9.562777 2.548463 0.603556 2.116582 3.439479 -24.294508 0.465858 2.717645 58.251743 1.816812 12.112574 3.983207 1.949100 0.000000 -31.086400 9.982217 -0.708651 -0.147657 22.713684 -5.168511 -11.708094 1.871876 0.288705 19.708795 -6.131109 -17.994961 -35.353028 -171.051200 0.000000 -33.460300
-1.033832 16.161220 3.263720 13.408394 38.546231 13.527250 -9.429313 2.427538 0.788268 1.841682 2.576776 -25.428742 0.372017 2.650993 57.542405 1.755911 11.757584 2.752959 1.691500 0.000001 -30.144400 10.034229 -0.730728 0.031614 22.766303 -4.334595 -10.888191 1.906594 0.362342 19.096117 -5.970800 -17.236971 -35.073579 -171.438400 0.000000 -33.240100
-0.975285 16.162421 3.385610 12.996767 36.979721 13.560460 -9.290691 2.305761 0.939097 1.516371 1.900719 -26.570201 0.274635 2.588023 56.838691 1.711393 11.495876 1.586510 1.469600 -0.000000 -29.364600 10.099533 -0.751664 0.203177 22.762823 -3.559289 -10.023234 1.940454 0.435694 18.476425 -5.797451 -16.447318 -34.774085 -171.835500 -0.000000 -32.966500
-0.918516 16.162559 3.508212 12.621062 35.364137 13.583843 -9.146836 2.184815 1.053226 1.120300 1.427726 -27.723640 0.173204 2.529756 56.147410 1.685657 11.344656 0.461082 1.276099 0.000000 -28.731500 10.178189 -0.770850 0.367946 22.701029 -2.841712 -9.112058 1.971484 0.509621 17.846132 -5.617125 -15.645422 -34.473239 -172.228500 0.000000 -32.702400
-0.863430 16.161629 3.631830 12.284616 33.716195 13.599064 -8.998214 2.066480 1.131147 0.635843 1.161238 -28.896831 0.066804 2.476984 55.471192 1.679997 11.308023 -0.643614 1.101700 0.000000 -28.214899 10.268553 -0.788268 0.528083 22.582787 -2.178291 -8.160295 1.998504 0.584930 17.203738 -5.434898 -14.845049 -34.186645 -172.607100 -0.000000 -32.505900
-0.809697 16.159722 3.756785 11.986984 32.054647 13.609614 -8.845705 1.952612 1.176117 0.049743 1.092433 -30.098746 -0.045472 2.430338 54.808947 1.694987 11.380730 -1.741363 0.937400 0.000000 -27.780100 10.367609 -0.804749 0.686027 22.413715 -1.565366 -7.178451 2.021353 0.662155 16.550469 -5.254062 -14.052686 -33.924334 -172.967200 -0.000000 -32.412400
-0.756931 16.156966 3.883328 11.725443 30.398989 13.617680 -8.690675 1.845029 1.193014 -0.646047 1.203597 -31.337495 -0.164343 2.390472 54.157582 1.730372 11.549250 -2.838836 0.775400 0.000000 -27.376200 10.471224 -0.821764 0.843788 22.202507 -1.000234 -6.178801 2.040721 0.741344 15.889604 -5.075865 -13.268306 -33.688785 -173.309099 0.000000 -32.442200
-0.704656 16.153521 4.011606 11.494178 28.768035 13.624493 -8.534874 1.745436 1.187417 -1.454139 1.470852 -32.619524 -0.289945 2.358128 53.513538 1.785282 11.795616 -3.932819 0.610300 -0.000001 -26.952900 10.574588 -0.841430 1.002117 21.959957 -0.483193 -5.172653 2.058124 0.822098 15.225130 -4.899288 -12.485468 -33.473567 -173.638500 0.000000 -32.594000
-0.652364 16.149575 4.141696 11.285967 27.179294 13.628441 -8.380295 1.655438 1.164546 -2.373548 1.868380 -33.948462 -0.421872 2.334183 52.873881 1.858071 12.099048 -5.011915 0.439500 0.000000 -26.459600 10.672887 -0.866290 1.160059 21.697168 -0.018687 -4.167939 2.075456 0.903335 14.561878 -4.721424 -11.694262 -33.262883 -173.964200 0.000001 -32.835800
-0.599630 16.145259 4.273639 11.094230 25.647731 13.626175 -8.228872 1.576737 1.128421 -3.401340 2.371755 -35.323396 -0.559250 2.319528 52.236349 1.946301 12.438580 -6.057073 0.264000 -0.000001 -25.868100 10.761951 -0.899059 1.315005 21.424805 0.384908 -3.168252 2.094630 0.983502 13.903658 -4.538115 -10.883653 -33.033373 -174.296700 -0.000000 -33.111900
-0.546130 16.140718 4.407462 10.912096 24.185384 13.611615 -8.082262 1.511080 1.081324 -4.534279 2.960718 -36.739426 -0.701023 2.315047 51.599195 2.046601 12.793367 -7.045487 0.087800 0.000001 -25.179100 10.838669 -0.942358 1.462846 21.151274 0.716036 -2.172647 2.117222 1.060533 13.253590 -4.344788 -10.044717 -32.756108 -174.645600 0.000000 -33.349700
